<?xml version="1.0" encoding="iso-8859-1"?>
<!-- Generator: Adobe Illustrator 19.0.0, SVG Export Plug-In . SVG Version: 6.00 Build 0)  -->
<svg version="1.1" id="Layer_1" xmlns="http://www.w3.org/2000/svg" xmlns:xlink="http://www.w3.org/1999/xlink" x="0px" y="0px"
	 viewBox="0 0 262.728 262.728" style="enable-background:new 0 0 262.728 262.728;" xml:space="preserve">
<g>
	<g>
		<g>
			<path style="fill:#2D213F;" d="M254.582,246.438H16.289V42.51l60.1,83.656c1.461,2.035,3.778,3.284,6.283,3.387l114.821,4.655
				l31.447,49.844l-19.333,11.185l52.132,30.037l-0.054-60.164l-18.634,10.781l-34.058-53.994c-1.429-2.265-3.88-3.685-6.559-3.794
				l-115.129-4.668L17.154,15.796c-0.26-0.362-0.561-0.673-0.865-0.977V8.145C16.289,3.646,12.643,0,8.145,0S0,3.646,0,8.145
				v246.438c0,4.498,3.646,8.145,8.145,8.145h246.438c4.498,0,8.145-3.646,8.145-8.145
				C262.727,250.084,259.081,246.438,254.582,246.438z"/>
		</g>
	</g>
</g>
</svg>
